<svg width="420" height="52" viewBox="0 0 420 52" fill="none" xmlns="http://www.w3.org/2000/svg">
<path d="M30.3777 24.2584L35.7555 15.1323L19.8159 15.0959L16.8811 10.1064L37.8345 10.07L43.2094 0.940889L0.847412 0.816406L0.868741 0.849794L30.3473 51.5003L35.7555 42.2103L25.2061 24.2675L30.3777 24.2584Z" fill="#004570"/>
<path d="M49.2735 0.816406L32.9363 28.6045L38.3355 37.7762L59.8474 0.816406H49.2735Z" fill="#004570"/>
<path d="M89.5179 9.52184H91.9497V17.6355C91.9497 18.3855 91.7811 19.037 91.444 19.59C91.1107 20.1431 90.6467 20.5692 90.052 20.8684C89.4573 21.1677 88.766 21.3173 87.9781 21.3173C87.2773 21.3173 86.641 21.1942 86.069 20.948C85.5008 20.698 85.0501 20.3192 84.7167 19.8116C84.3834 19.3002 84.2186 18.6582 84.2224 17.8855H86.6713C86.6789 18.1923 86.7414 18.4556 86.8588 18.6752C86.98 18.8912 87.1448 19.0578 87.3531 19.1752C87.5652 19.2889 87.8152 19.3457 88.1031 19.3457C88.4061 19.3457 88.6618 19.2813 88.8701 19.1525C89.0823 19.0199 89.2432 18.8268 89.3531 18.573C89.4629 18.3192 89.5179 18.0067 89.5179 17.6355V9.52184ZM97.8815 21.3287C96.9989 21.3287 96.2357 21.1412 95.5917 20.7662C94.9516 20.3874 94.4573 19.8609 94.1088 19.1866C93.7603 18.5086 93.586 17.7226 93.586 16.8287C93.586 15.9271 93.7603 15.1393 94.1088 14.465C94.4573 13.787 94.9516 13.2605 95.5917 12.8855C96.2357 12.5067 96.9989 12.3173 97.8815 12.3173C98.7641 12.3173 99.5254 12.5067 100.166 12.8855C100.81 13.2605 101.306 13.787 101.654 14.465C102.003 15.1393 102.177 15.9271 102.177 16.8287C102.177 17.7226 102.003 18.5086 101.654 19.1866C101.306 19.8609 100.81 20.3874 100.166 20.7662C99.5254 21.1412 98.7641 21.3287 97.8815 21.3287ZM97.8929 19.4537C98.2944 19.4537 98.6296 19.34 98.8985 19.1127C99.1675 18.8817 99.3701 18.5673 99.5065 18.1696C99.6467 17.7718 99.7167 17.3192 99.7167 16.8116C99.7167 16.304 99.6467 15.8514 99.5065 15.4537C99.3701 15.0559 99.1675 14.7415 98.8985 14.5105C98.6296 14.2794 98.2944 14.1639 97.8929 14.1639C97.4876 14.1639 97.1467 14.2794 96.8701 14.5105C96.5974 14.7415 96.391 15.0559 96.2508 15.4537C96.1145 15.8514 96.0463 16.304 96.0463 16.8116C96.0463 17.3192 96.1145 17.7718 96.2508 18.1696C96.391 18.5673 96.5974 18.8817 96.8701 19.1127C97.1467 19.34 97.4876 19.4537 97.8929 19.4537ZM103.751 21.1582V12.4309H106.171V21.1582H103.751ZM104.967 11.3059C104.607 11.3059 104.298 11.1866 104.041 10.948C103.787 10.7056 103.66 10.4158 103.66 10.0787C103.66 9.74532 103.787 9.45934 104.041 9.2207C104.298 8.97828 104.607 8.85707 104.967 8.85707C105.327 8.85707 105.633 8.97828 105.887 9.2207C106.145 9.45934 106.274 9.74532 106.274 10.0787C106.274 10.4158 106.145 10.7056 105.887 10.948C105.633 11.1866 105.327 11.3059 104.967 11.3059ZM110.531 16.1127V21.1582H108.11V12.4309H110.417V13.9707H110.519C110.712 13.4631 111.036 13.0616 111.491 12.7662C111.945 12.4669 112.497 12.3173 113.144 12.3173C113.75 12.3173 114.279 12.4499 114.73 12.715C115.18 12.9802 115.531 13.359 115.781 13.8514C116.031 14.34 116.156 14.9234 116.156 15.6014V21.1582H113.735V16.0332C113.739 15.4991 113.603 15.0824 113.326 14.7832C113.05 14.4802 112.669 14.3287 112.184 14.3287C111.858 14.3287 111.57 14.3987 111.32 14.5389C111.074 14.679 110.881 14.8836 110.741 15.1525C110.605 15.4177 110.534 15.7377 110.531 16.1127ZM127.363 17.4423V12.4309H129.783V21.1582H127.46V19.573H127.369C127.172 20.0843 126.844 20.4953 126.386 20.8059C125.931 21.1165 125.376 21.2718 124.721 21.2718C124.138 21.2718 123.624 21.1393 123.181 20.8741C122.738 20.609 122.391 20.2321 122.141 19.7434C121.895 19.2548 121.77 18.6696 121.766 17.9877V12.4309H124.187V17.5559C124.191 18.0711 124.329 18.4783 124.602 18.7775C124.874 19.0768 125.24 19.2264 125.698 19.2264C125.99 19.2264 126.263 19.1601 126.516 19.0275C126.77 18.8912 126.975 18.6904 127.13 18.4252C127.289 18.1601 127.367 17.8324 127.363 17.4423ZM138.981 14.9196L136.765 15.0559C136.727 14.8665 136.646 14.6961 136.521 14.5446C136.396 14.3893 136.231 14.2662 136.026 14.1752C135.826 14.0806 135.585 14.0332 135.305 14.0332C134.93 14.0332 134.614 14.1127 134.356 14.2718C134.098 14.4271 133.97 14.6355 133.97 14.8968C133.97 15.1052 134.053 15.2813 134.22 15.4252C134.386 15.5692 134.672 15.6847 135.078 15.7718L136.657 16.09C137.506 16.2643 138.138 16.5446 138.555 16.9309C138.971 17.3173 139.18 17.8249 139.18 18.4537C139.18 19.0256 139.011 19.5275 138.674 19.9593C138.341 20.3912 137.882 20.7283 137.299 20.9707C136.72 21.2093 136.051 21.3287 135.293 21.3287C134.138 21.3287 133.218 21.0881 132.532 20.6071C131.85 20.1222 131.451 19.4631 131.333 18.6298L133.714 18.5048C133.786 18.8571 133.96 19.126 134.237 19.3116C134.513 19.4934 134.867 19.5843 135.299 19.5843C135.723 19.5843 136.064 19.5029 136.322 19.34C136.583 19.1734 136.716 18.9593 136.72 18.698C136.716 18.4783 136.623 18.2984 136.441 18.1582C136.259 18.0143 135.979 17.9044 135.6 17.8287L134.089 17.5275C133.237 17.3571 132.602 17.0616 132.185 16.6412C131.773 16.2207 131.566 15.6847 131.566 15.0332C131.566 14.4726 131.718 13.9896 132.021 13.5843C132.328 13.179 132.757 12.8665 133.31 12.6468C133.867 12.4271 134.519 12.3173 135.265 12.3173C136.367 12.3173 137.235 12.5502 137.867 13.0162C138.504 13.4821 138.875 14.1165 138.981 14.9196ZM144.407 21.1582V12.4309H146.828V21.1582H144.407ZM145.623 11.3059C145.263 11.3059 144.954 11.1866 144.697 10.948C144.443 10.7056 144.316 10.4158 144.316 10.0787C144.316 9.74532 144.443 9.45934 144.697 9.2207C144.954 8.97828 145.263 8.85707 145.623 8.85707C145.983 8.85707 146.29 8.97828 146.543 9.2207C146.801 9.45934 146.93 9.74532 146.93 10.0787C146.93 10.4158 146.801 10.7056 146.543 10.948C146.29 11.1866 145.983 11.3059 145.623 11.3059ZM151.187 16.1127V21.1582H148.766V12.4309H151.073V13.9707H151.176C151.369 13.4631 151.693 13.0616 152.147 12.7662C152.602 12.4669 153.153 12.3173 153.801 12.3173C154.407 12.3173 154.935 12.4499 155.386 12.715C155.837 12.9802 156.187 13.359 156.437 13.8514C156.687 14.34 156.812 14.9234 156.812 15.6014V21.1582H154.391V16.0332C154.395 15.4991 154.259 15.0824 153.982 14.7832C153.706 14.4802 153.325 14.3287 152.84 14.3287C152.515 14.3287 152.227 14.3987 151.977 14.5389C151.73 14.679 151.537 14.8836 151.397 15.1525C151.261 15.4177 151.191 15.7377 151.187 16.1127ZM169.684 14.9196L167.468 15.0559C167.43 14.8665 167.349 14.6961 167.224 14.5446C167.099 14.3893 166.934 14.2662 166.73 14.1752C166.529 14.0806 166.288 14.0332 166.008 14.0332C165.633 14.0332 165.317 14.1127 165.059 14.2718C164.801 14.4271 164.673 14.6355 164.673 14.8968C164.673 15.1052 164.756 15.2813 164.923 15.4252C165.089 15.5692 165.375 15.6847 165.781 15.7718L167.36 16.09C168.209 16.2643 168.841 16.5446 169.258 16.9309C169.675 17.3173 169.883 17.8249 169.883 18.4537C169.883 19.0256 169.714 19.5275 169.377 19.9593C169.044 20.3912 168.586 20.7283 168.002 20.9707C167.423 21.2093 166.754 21.3287 165.997 21.3287C164.841 21.3287 163.921 21.0881 163.235 20.6071C162.553 20.1222 162.154 19.4631 162.036 18.6298L164.417 18.5048C164.489 18.8571 164.663 19.126 164.94 19.3116C165.216 19.4934 165.57 19.5843 166.002 19.5843C166.426 19.5843 166.767 19.5029 167.025 19.34C167.286 19.1734 167.419 18.9593 167.423 18.698C167.419 18.4783 167.326 18.2984 167.144 18.1582C166.962 18.0143 166.682 17.9044 166.303 17.8287L164.792 17.5275C163.94 17.3571 163.305 17.0616 162.889 16.6412C162.476 16.2207 162.269 15.6847 162.269 15.0332C162.269 14.4726 162.421 13.9896 162.724 13.5843C163.031 13.179 163.461 12.8665 164.014 12.6468C164.57 12.4271 165.222 12.3173 165.968 12.3173C167.07 12.3173 167.938 12.5502 168.57 13.0162C169.207 13.4821 169.578 14.1165 169.684 14.9196ZM173.828 16.1127V21.1582H171.407V9.52184H173.759V13.9707H173.862C174.059 13.4556 174.377 13.0521 174.816 12.7605C175.256 12.465 175.807 12.3173 176.47 12.3173C177.076 12.3173 177.604 12.4499 178.055 12.715C178.509 12.9764 178.862 13.3533 179.112 13.8457C179.365 14.3343 179.49 14.9196 179.487 15.6014V21.1582H177.066V16.0332C177.07 15.4953 176.934 15.0768 176.657 14.7775C176.384 14.4783 176.002 14.3287 175.509 14.3287C175.18 14.3287 174.888 14.3987 174.634 14.5389C174.384 14.679 174.187 14.8836 174.043 15.1525C173.903 15.4177 173.831 15.7377 173.828 16.1127ZM183.88 21.323C183.323 21.323 182.827 21.2264 182.391 21.0332C181.956 20.8362 181.611 20.5465 181.357 20.1639C181.107 19.7775 180.982 19.2965 180.982 18.7207C180.982 18.2359 181.071 17.8287 181.249 17.4991C181.427 17.1696 181.67 16.9044 181.977 16.7037C182.283 16.5029 182.632 16.3514 183.022 16.2491C183.416 16.1468 183.829 16.0749 184.261 16.0332C184.768 15.9802 185.177 15.9309 185.488 15.8855C185.799 15.8362 186.024 15.7643 186.164 15.6696C186.304 15.5749 186.374 15.4347 186.374 15.2491V15.215C186.374 14.8552 186.261 14.5768 186.033 14.3798C185.81 14.1828 185.492 14.0843 185.079 14.0843C184.643 14.0843 184.297 14.1809 184.039 14.3741C183.782 14.5635 183.611 14.8021 183.528 15.09L181.289 14.9082C181.403 14.3779 181.626 13.9196 181.96 13.5332C182.293 13.1431 182.723 12.8438 183.249 12.6355C183.78 12.4234 184.393 12.3173 185.09 12.3173C185.575 12.3173 186.039 12.3741 186.482 12.4877C186.929 12.6014 187.325 12.7775 187.67 13.0162C188.018 13.2548 188.293 13.5616 188.494 13.9366C188.694 14.3078 188.795 14.7529 188.795 15.2718V21.1582H186.499V19.948H186.431C186.291 20.2207 186.104 20.4612 185.869 20.6696C185.634 20.8741 185.352 21.0351 185.022 21.1525C184.693 21.2662 184.312 21.323 183.88 21.323ZM184.573 19.6525C184.929 19.6525 185.244 19.5824 185.516 19.4423C185.789 19.2984 186.003 19.1052 186.158 18.8627C186.314 18.6203 186.391 18.3457 186.391 18.0389V17.1127C186.316 17.162 186.212 17.2074 186.079 17.2491C185.95 17.287 185.804 17.323 185.641 17.3571C185.479 17.3874 185.316 17.4158 185.153 17.4423C184.99 17.465 184.842 17.4859 184.71 17.5048C184.426 17.5465 184.177 17.6127 183.965 17.7037C183.753 17.7946 183.588 17.9177 183.471 18.073C183.354 18.2245 183.295 18.4139 183.295 18.6412C183.295 18.9707 183.414 19.2226 183.653 19.3968C183.895 19.5673 184.202 19.6525 184.573 19.6525ZM190.673 24.4309V12.4309H193.059V13.8968H193.167C193.273 13.662 193.426 13.4234 193.627 13.1809C193.832 12.9347 194.097 12.7302 194.423 12.5673C194.752 12.4006 195.161 12.3173 195.65 12.3173C196.286 12.3173 196.873 12.484 197.411 12.8173C197.949 13.1468 198.379 13.6449 198.701 14.3116C199.023 14.9745 199.184 15.8059 199.184 16.8059C199.184 17.7794 199.027 18.6014 198.712 19.2718C198.402 19.9385 197.978 20.4442 197.44 20.7889C196.906 21.1298 196.307 21.3002 195.644 21.3002C195.175 21.3002 194.775 21.2226 194.445 21.0673C194.12 20.912 193.853 20.7169 193.644 20.4821C193.436 20.2434 193.277 20.0029 193.167 19.7605H193.093V24.4309H190.673ZM193.042 16.7946C193.042 17.3135 193.114 17.7662 193.258 18.1525C193.402 18.5389 193.61 18.84 193.883 19.0559C194.156 19.2681 194.487 19.3741 194.877 19.3741C195.271 19.3741 195.605 19.2662 195.877 19.0502C196.15 18.8306 196.356 18.5275 196.497 18.1412C196.64 17.751 196.712 17.3021 196.712 16.7946C196.712 16.2908 196.642 15.8476 196.502 15.465C196.362 15.0824 196.156 14.7832 195.883 14.5673C195.61 14.3514 195.275 14.2434 194.877 14.2434C194.483 14.2434 194.15 14.3476 193.877 14.5559C193.608 14.7643 193.402 15.0597 193.258 15.4423C193.114 15.8249 193.042 16.2756 193.042 16.7946ZM200.798 21.1582V12.4309H203.218V21.1582H200.798ZM202.014 11.3059C201.654 11.3059 201.345 11.1866 201.087 10.948C200.834 10.7056 200.707 10.4158 200.707 10.0787C200.707 9.74532 200.834 9.45934 201.087 9.2207C201.345 8.97828 201.654 8.85707 202.014 8.85707C202.373 8.85707 202.68 8.97828 202.934 9.2207C203.192 9.45934 203.32 9.74532 203.32 10.0787C203.32 10.4158 203.192 10.7056 202.934 10.948C202.68 11.1866 202.373 11.3059 202.014 11.3059ZM207.578 16.1127V21.1582H205.157V12.4309H207.464V13.9707H207.566C207.759 13.4631 208.083 13.0616 208.538 12.7662C208.992 12.4669 209.543 12.3173 210.191 12.3173C210.797 12.3173 211.326 12.4499 211.776 12.715C212.227 12.9802 212.578 13.359 212.828 13.8514C213.078 14.34 213.203 14.9234 213.203 15.6014V21.1582H210.782V16.0332C210.786 15.4991 210.649 15.0824 210.373 14.7832C210.096 14.4802 209.716 14.3287 209.231 14.3287C208.905 14.3287 208.617 14.3987 208.367 14.5389C208.121 14.679 207.928 14.8836 207.788 15.1525C207.651 15.4177 207.581 15.7377 207.578 16.1127ZM219.042 24.6127C218.258 24.6127 217.586 24.5048 217.025 24.2889C216.468 24.0768 216.025 23.787 215.695 23.4196C215.366 23.0521 215.152 22.6393 215.053 22.1809L217.292 21.8798C217.36 22.054 217.468 22.2169 217.616 22.3684C217.764 22.5199 217.959 22.6412 218.201 22.7321C218.447 22.8268 218.747 22.8741 219.099 22.8741C219.625 22.8741 220.059 22.7453 220.4 22.4877C220.745 22.234 220.917 21.8078 220.917 21.2093V19.6127H220.815C220.709 19.8552 220.55 20.0843 220.337 20.3002C220.125 20.5162 219.853 20.6923 219.519 20.8287C219.186 20.965 218.788 21.0332 218.326 21.0332C217.671 21.0332 217.074 20.8817 216.536 20.5787C216.002 20.2718 215.576 19.804 215.258 19.1752C214.944 18.5427 214.786 17.7434 214.786 16.7775C214.786 15.7889 214.947 14.9631 215.269 14.3002C215.591 13.6374 216.019 13.1412 216.553 12.8116C217.091 12.4821 217.68 12.3173 218.32 12.3173C218.809 12.3173 219.218 12.4006 219.548 12.5673C219.877 12.7302 220.142 12.9347 220.343 13.1809C220.548 13.4234 220.705 13.662 220.815 13.8968H220.906V12.4309H223.309V21.2434C223.309 21.9859 223.127 22.6071 222.764 23.1071C222.4 23.6071 221.896 23.9821 221.252 24.2321C220.612 24.4859 219.875 24.6127 219.042 24.6127ZM219.093 19.215C219.483 19.215 219.813 19.1184 220.082 18.9252C220.355 18.7283 220.563 18.448 220.707 18.0843C220.855 17.7169 220.928 17.2775 220.928 16.7662C220.928 16.2548 220.856 15.8116 220.712 15.4366C220.569 15.0578 220.36 14.7643 220.087 14.5559C219.815 14.3476 219.483 14.2434 219.093 14.2434C218.695 14.2434 218.36 14.3514 218.087 14.5673C217.815 14.7794 217.608 15.0749 217.468 15.4537C217.328 15.8324 217.258 16.2699 217.258 16.7662C217.258 17.2699 217.328 17.7056 217.468 18.073C217.612 18.4366 217.819 18.7188 218.087 18.9196C218.36 19.1165 218.695 19.215 219.093 19.215ZM231.427 21.323C230.87 21.323 230.374 21.2264 229.938 21.0332C229.503 20.8362 229.158 20.5465 228.904 20.1639C228.654 19.7775 228.529 19.2965 228.529 18.7207C228.529 18.2359 228.618 17.8287 228.796 17.4991C228.974 17.1696 229.217 16.9044 229.524 16.7037C229.83 16.5029 230.179 16.3514 230.569 16.2491C230.963 16.1468 231.376 16.0749 231.808 16.0332C232.315 15.9802 232.724 15.9309 233.035 15.8855C233.346 15.8362 233.571 15.7643 233.711 15.6696C233.851 15.5749 233.921 15.4347 233.921 15.2491V15.215C233.921 14.8552 233.808 14.5768 233.58 14.3798C233.357 14.1828 233.039 14.0843 232.626 14.0843C232.19 14.0843 231.844 14.1809 231.586 14.3741C231.328 14.5635 231.158 14.8021 231.075 15.09L228.836 14.9082C228.95 14.3779 229.173 13.9196 229.507 13.5332C229.84 13.1431 230.27 12.8438 230.796 12.6355C231.327 12.4234 231.94 12.3173 232.637 12.3173C233.122 12.3173 233.586 12.3741 234.029 12.4877C234.476 12.6014 234.872 12.7775 235.217 13.0162C235.565 13.2548 235.84 13.5616 236.041 13.9366C236.241 14.3078 236.342 14.7529 236.342 15.2718V21.1582H234.046V19.948H233.978C233.838 20.2207 233.65 20.4612 233.416 20.6696C233.181 20.8741 232.899 21.0351 232.569 21.1525C232.239 21.2662 231.859 21.323 231.427 21.323ZM232.12 19.6525C232.476 19.6525 232.791 19.5824 233.063 19.4423C233.336 19.2984 233.55 19.1052 233.705 18.8627C233.861 18.6203 233.938 18.3457 233.938 18.0389V17.1127C233.863 17.162 233.758 17.2074 233.626 17.2491C233.497 17.287 233.351 17.323 233.188 17.3571C233.025 17.3874 232.863 17.4158 232.7 17.4423C232.537 17.465 232.389 17.4859 232.257 17.5048C231.972 17.5465 231.724 17.6127 231.512 17.7037C231.3 17.7946 231.135 17.9177 231.018 18.073C230.9 18.2245 230.842 18.4139 230.842 18.6412C230.842 18.9707 230.961 19.2226 231.2 19.3968C231.442 19.5673 231.749 19.6525 232.12 19.6525ZM249.184 14.9196L246.968 15.0559C246.93 14.8665 246.849 14.6961 246.724 14.5446C246.599 14.3893 246.434 14.2662 246.23 14.1752C246.029 14.0806 245.788 14.0332 245.508 14.0332C245.133 14.0332 244.817 14.1127 244.559 14.2718C244.301 14.4271 244.173 14.6355 244.173 14.8968C244.173 15.1052 244.256 15.2813 244.423 15.4252C244.589 15.5692 244.875 15.6847 245.281 15.7718L246.86 16.09C247.709 16.2643 248.341 16.5446 248.758 16.9309C249.175 17.3173 249.383 17.8249 249.383 18.4537C249.383 19.0256 249.214 19.5275 248.877 19.9593C248.544 20.3912 248.086 20.7283 247.502 20.9707C246.923 21.2093 246.254 21.3287 245.497 21.3287C244.341 21.3287 243.421 21.0881 242.735 20.6071C242.053 20.1222 241.654 19.4631 241.536 18.6298L243.917 18.5048C243.989 18.8571 244.163 19.126 244.44 19.3116C244.716 19.4934 245.07 19.5843 245.502 19.5843C245.926 19.5843 246.267 19.5029 246.525 19.34C246.786 19.1734 246.919 18.9593 246.923 18.698C246.919 18.4783 246.826 18.2984 246.644 18.1582C246.462 18.0143 246.182 17.9044 245.803 17.8287L244.292 17.5275C243.44 17.3571 242.805 17.0616 242.389 16.6412C241.976 16.2207 241.769 15.6847 241.769 15.0332C241.769 14.4726 241.921 13.9896 242.224 13.5843C242.531 13.179 242.961 12.8665 243.514 12.6468C244.07 12.4271 244.722 12.3173 245.468 12.3173C246.57 12.3173 247.438 12.5502 248.07 13.0162C248.707 13.4821 249.078 14.1165 249.184 14.9196ZM253.396 21.323C252.839 21.323 252.343 21.2264 251.907 21.0332C251.471 20.8362 251.127 20.5465 250.873 20.1639C250.623 19.7775 250.498 19.2965 250.498 18.7207C250.498 18.2359 250.587 17.8287 250.765 17.4991C250.943 17.1696 251.185 16.9044 251.492 16.7037C251.799 16.5029 252.148 16.3514 252.538 16.2491C252.932 16.1468 253.345 16.0749 253.776 16.0332C254.284 15.9802 254.693 15.9309 255.004 15.8855C255.314 15.8362 255.54 15.7643 255.68 15.6696C255.82 15.5749 255.89 15.4347 255.89 15.2491V15.215C255.89 14.8552 255.776 14.5768 255.549 14.3798C255.326 14.1828 255.007 14.0843 254.595 14.0843C254.159 14.0843 253.812 14.1809 253.555 14.3741C253.297 14.5635 253.127 14.8021 253.043 15.09L250.805 14.9082C250.918 14.3779 251.142 13.9196 251.475 13.5332C251.809 13.1431 252.239 12.8438 252.765 12.6355C253.295 12.4234 253.909 12.3173 254.606 12.3173C255.091 12.3173 255.555 12.3741 255.998 12.4877C256.445 12.6014 256.841 12.7775 257.185 13.0162C257.534 13.2548 257.809 13.5616 258.009 13.9366C258.21 14.3078 258.31 14.7529 258.31 15.2718V21.1582H256.015V19.948H255.947C255.807 20.2207 255.619 20.4612 255.384 20.6696C255.149 20.8741 254.867 21.0351 254.538 21.1525C254.208 21.2662 253.828 21.323 253.396 21.323ZM254.089 19.6525C254.445 19.6525 254.759 19.5824 255.032 19.4423C255.305 19.2984 255.519 19.1052 255.674 18.8627C255.829 18.6203 255.907 18.3457 255.907 18.0389V17.1127C255.831 17.162 255.727 17.2074 255.595 17.2491C255.466 17.287 255.32 17.323 255.157 17.3571C254.994 17.3874 254.831 17.4158 254.668 17.4423C254.506 17.465 254.358 17.4859 254.225 17.5048C253.941 17.5465 253.693 17.6127 253.481 17.7037C253.269 17.7946 253.104 17.9177 252.987 18.073C252.869 18.2245 252.81 18.4139 252.81 18.6412C252.81 18.9707 252.93 19.2226 253.168 19.3968C253.411 19.5673 253.718 19.6525 254.089 19.6525ZM264.882 12.4309V14.2491H259.495V12.4309H264.882ZM260.728 21.1582V11.8002C260.728 11.1677 260.851 10.6431 261.097 10.2264C261.347 9.80972 261.688 9.49722 262.12 9.28888C262.552 9.08055 263.042 8.97638 263.592 8.97638C263.963 8.97638 264.302 9.00479 264.609 9.06161C264.919 9.11843 265.15 9.16957 265.302 9.21502L264.87 11.0332C264.775 11.0029 264.658 10.9745 264.518 10.948C264.382 10.9215 264.241 10.9082 264.097 10.9082C263.741 10.9082 263.493 10.9915 263.353 11.1582C263.213 11.3211 263.143 11.5502 263.143 11.8457V21.1582H260.728ZM270.025 21.3287C269.127 21.3287 268.355 21.1468 267.707 20.7832C267.063 20.4158 266.567 19.8968 266.218 19.2264C265.87 18.5521 265.695 17.7548 265.695 16.8343C265.695 15.9366 265.87 15.1487 266.218 14.4707C266.567 13.7927 267.057 13.2643 267.69 12.8855C268.326 12.5067 269.072 12.3173 269.928 12.3173C270.504 12.3173 271.04 12.4101 271.536 12.5957C272.036 12.7775 272.472 13.0521 272.843 13.4196C273.218 13.787 273.51 14.2491 273.718 14.8059C273.926 15.359 274.031 16.0067 274.031 16.7491V17.4139H266.661V15.9139H271.752C271.752 15.5654 271.676 15.2567 271.525 14.9877C271.373 14.7188 271.163 14.5086 270.894 14.3571C270.629 14.2018 270.32 14.1241 269.968 14.1241C269.601 14.1241 269.275 14.2093 268.991 14.3798C268.711 14.5465 268.491 14.7718 268.332 15.0559C268.173 15.3362 268.091 15.6487 268.087 15.9934V17.4196C268.087 17.8514 268.167 18.2245 268.326 18.5389C268.489 18.8533 268.718 19.0957 269.014 19.2662C269.309 19.4366 269.659 19.5218 270.065 19.5218C270.334 19.5218 270.58 19.484 270.803 19.4082C271.027 19.3324 271.218 19.2188 271.377 19.0673C271.536 18.9158 271.658 18.7302 271.741 18.5105L273.98 18.6582C273.866 19.1961 273.633 19.6658 273.281 20.0673C272.932 20.465 272.481 20.7756 271.928 20.9991C271.379 21.2188 270.745 21.3287 270.025 21.3287ZM275.61 21.1582V12.4309H277.957V13.9537H278.048C278.207 13.412 278.474 13.0029 278.849 12.7264C279.224 12.4461 279.656 12.3059 280.144 12.3059C280.265 12.3059 280.396 12.3135 280.536 12.3287C280.676 12.3438 280.8 12.3646 280.906 12.3912V14.5389C280.792 14.5048 280.635 14.4745 280.434 14.448C280.233 14.4215 280.05 14.4082 279.883 14.4082C279.527 14.4082 279.209 14.4859 278.928 14.6412C278.652 14.7927 278.432 15.0048 278.269 15.2775C278.11 15.5502 278.031 15.8646 278.031 16.2207V21.1582H275.61ZM289.076 21.3002C288.413 21.3002 287.813 21.1298 287.275 20.7889C286.741 20.4442 286.317 19.9385 286.002 19.2718C285.692 18.6014 285.536 17.7794 285.536 16.8059C285.536 15.8059 285.697 14.9745 286.019 14.3116C286.341 13.6449 286.769 13.1468 287.303 12.8173C287.841 12.484 288.43 12.3173 289.07 12.3173C289.559 12.3173 289.966 12.4006 290.292 12.5673C290.622 12.7302 290.887 12.9347 291.087 13.1809C291.292 13.4234 291.447 13.662 291.553 13.8968H291.627V9.52184H294.042V21.1582H291.656V19.7605H291.553C291.44 20.0029 291.279 20.2434 291.07 20.4821C290.866 20.7169 290.599 20.912 290.269 21.0673C289.944 21.2226 289.546 21.3002 289.076 21.3002ZM289.843 19.3741C290.233 19.3741 290.563 19.2681 290.832 19.0559C291.105 18.84 291.313 18.5389 291.457 18.1525C291.605 17.7662 291.678 17.3135 291.678 16.7946C291.678 16.2756 291.606 15.8249 291.462 15.4423C291.319 15.0597 291.11 14.7643 290.837 14.5559C290.565 14.3476 290.233 14.2434 289.843 14.2434C289.445 14.2434 289.11 14.3514 288.837 14.5673C288.565 14.7832 288.358 15.0824 288.218 15.465C288.078 15.8476 288.008 16.2908 288.008 16.7946C288.008 17.3021 288.078 17.751 288.218 18.1412C288.362 18.5275 288.569 18.8306 288.837 19.0502C289.11 19.2662 289.445 19.3741 289.843 19.3741ZM296.032 21.1582V12.4309H298.453V21.1582H296.032ZM297.248 11.3059C296.888 11.3059 296.579 11.1866 296.322 10.948C296.068 10.7056 295.941 10.4158 295.941 10.0787C295.941 9.74532 296.068 9.45934 296.322 9.2207C296.579 8.97828 296.888 8.85707 297.248 8.85707C297.608 8.85707 297.915 8.97828 298.168 9.2207C298.426 9.45934 298.555 9.74532 298.555 10.0787C298.555 10.4158 298.426 10.7056 298.168 10.948C297.915 11.1866 297.608 11.3059 297.248 11.3059ZM304.323 24.6127C303.539 24.6127 302.867 24.5048 302.306 24.2889C301.749 24.0768 301.306 23.787 300.977 23.4196C300.647 23.0521 300.433 22.6393 300.335 22.1809L302.573 21.8798C302.641 22.054 302.749 22.2169 302.897 22.3684C303.045 22.5199 303.24 22.6412 303.482 22.7321C303.729 22.8268 304.028 22.8741 304.38 22.8741C304.907 22.8741 305.34 22.7453 305.681 22.4877C306.026 22.234 306.198 21.8078 306.198 21.2093V19.6127H306.096C305.99 19.8552 305.831 20.0843 305.619 20.3002C305.407 20.5162 305.134 20.6923 304.801 20.8287C304.467 20.965 304.069 21.0332 303.607 21.0332C302.952 21.0332 302.355 20.8817 301.818 20.5787C301.283 20.2718 300.857 19.804 300.539 19.1752C300.225 18.5427 300.068 17.7434 300.068 16.7775C300.068 15.7889 300.229 14.9631 300.551 14.3002C300.873 13.6374 301.301 13.1412 301.835 12.8116C302.373 12.4821 302.962 12.3173 303.602 12.3173C304.09 12.3173 304.499 12.4006 304.829 12.5673C305.158 12.7302 305.424 12.9347 305.624 13.1809C305.829 13.4234 305.986 13.662 306.096 13.8968H306.187V12.4309H308.59V21.2434C308.59 21.9859 308.408 22.6071 308.045 23.1071C307.681 23.6071 307.177 23.9821 306.533 24.2321C305.893 24.4859 305.157 24.6127 304.323 24.6127ZM304.374 19.215C304.765 19.215 305.094 19.1184 305.363 18.9252C305.636 18.7283 305.844 18.448 305.988 18.0843C306.136 17.7169 306.21 17.2775 306.21 16.7662C306.21 16.2548 306.138 15.8116 305.994 15.4366C305.85 15.0578 305.641 14.7643 305.369 14.5559C305.096 14.3476 304.765 14.2434 304.374 14.2434C303.977 14.2434 303.641 14.3514 303.369 14.5673C303.096 14.7794 302.89 15.0749 302.749 15.4537C302.609 15.8324 302.539 16.2699 302.539 16.7662C302.539 17.2699 302.609 17.7056 302.749 18.073C302.893 18.4366 303.1 18.7188 303.369 18.9196C303.641 19.1165 303.977 19.215 304.374 19.215ZM310.516 21.1582V12.4309H312.937V21.1582H310.516ZM311.732 11.3059C311.373 11.3059 311.064 11.1866 310.806 10.948C310.552 10.7056 310.426 10.4158 310.426 10.0787C310.426 9.74532 310.552 9.45934 310.806 9.2207C311.064 8.97828 311.373 8.85707 311.732 8.85707C312.092 8.85707 312.399 8.97828 312.653 9.2207C312.91 9.45934 313.039 9.74532 313.039 10.0787C313.039 10.4158 312.91 10.7056 312.653 10.948C312.399 11.1866 312.092 11.3059 311.732 11.3059ZM319.518 12.4309V14.2491H314.262V12.4309H319.518ZM315.455 10.34H317.876V18.4764C317.876 18.6999 317.91 18.8741 317.978 18.9991C318.046 19.1203 318.141 19.2056 318.262 19.2548C318.387 19.304 318.531 19.3287 318.694 19.3287C318.808 19.3287 318.921 19.3192 319.035 19.3002C319.149 19.2775 319.236 19.2605 319.296 19.2491L319.677 21.0502C319.556 21.0881 319.385 21.1317 319.166 21.1809C318.946 21.234 318.679 21.2662 318.364 21.2775C317.781 21.3002 317.27 21.2226 316.83 21.0446C316.395 20.8665 316.056 20.59 315.813 20.215C315.571 19.84 315.452 19.3665 315.455 18.7946V10.34ZM323.583 21.323C323.026 21.323 322.53 21.2264 322.095 21.0332C321.659 20.8362 321.314 20.5465 321.06 20.1639C320.81 19.7775 320.685 19.2965 320.685 18.7207C320.685 18.2359 320.774 17.8287 320.953 17.4991C321.131 17.1696 321.373 16.9044 321.68 16.7037C321.987 16.5029 322.335 16.3514 322.725 16.2491C323.119 16.1468 323.532 16.0749 323.964 16.0332C324.471 15.9802 324.881 15.9309 325.191 15.8855C325.502 15.8362 325.727 15.7643 325.867 15.6696C326.007 15.5749 326.078 15.4347 326.078 15.2491V15.215C326.078 14.8552 325.964 14.5768 325.737 14.3798C325.513 14.1828 325.195 14.0843 324.782 14.0843C324.346 14.0843 324 14.1809 323.742 14.3741C323.485 14.5635 323.314 14.8021 323.231 15.09L320.992 14.9082C321.106 14.3779 321.329 13.9196 321.663 13.5332C321.996 13.1431 322.426 12.8438 322.953 12.6355C323.483 12.4234 324.096 12.3173 324.793 12.3173C325.278 12.3173 325.742 12.3741 326.185 12.4877C326.632 12.6014 327.028 12.7775 327.373 13.0162C327.721 13.2548 327.996 13.5616 328.197 13.9366C328.398 14.3078 328.498 14.7529 328.498 15.2718V21.1582H326.203V19.948H326.134C325.994 20.2207 325.807 20.4612 325.572 20.6696C325.337 20.8741 325.055 21.0351 324.725 21.1525C324.396 21.2662 324.015 21.323 323.583 21.323ZM324.276 19.6525C324.632 19.6525 324.947 19.5824 325.22 19.4423C325.492 19.2984 325.706 19.1052 325.862 18.8627C326.017 18.6203 326.095 18.3457 326.095 18.0389V17.1127C326.019 17.162 325.915 17.2074 325.782 17.2491C325.653 17.287 325.507 17.323 325.345 17.3571C325.182 17.3874 325.019 17.4158 324.856 17.4423C324.693 17.465 324.545 17.4859 324.413 17.5048C324.129 17.5465 323.881 17.6127 323.668 17.7037C323.456 17.7946 323.292 17.9177 323.174 18.073C323.057 18.2245 322.998 18.4139 322.998 18.6412C322.998 18.9707 323.117 19.2226 323.356 19.3968C323.598 19.5673 323.905 19.6525 324.276 19.6525ZM332.796 9.52184V21.1582H330.376V9.52184H332.796ZM88.7906 42.3287C87.8929 42.3287 87.1201 42.1468 86.4724 41.7832C85.8285 41.4158 85.3323 40.8968 84.9838 40.2264C84.6353 39.5521 84.461 38.7548 84.461 37.8343C84.461 36.9366 84.6353 36.1487 84.9838 35.4707C85.3323 34.7927 85.8228 34.2643 86.4554 33.8855C87.0917 33.5067 87.8379 33.3173 88.694 33.3173C89.2698 33.3173 89.8057 33.4101 90.302 33.5957C90.802 33.7775 91.2376 34.0521 91.6088 34.4196C91.9838 34.787 92.2754 35.2491 92.4838 35.8059C92.6921 36.359 92.7963 37.0067 92.7963 37.7491V38.4139H85.427V36.9139H90.5179C90.5179 36.5654 90.4421 36.2567 90.2906 35.9877C90.1391 35.7188 89.9289 35.5086 89.6599 35.3571C89.3948 35.2018 89.086 35.1241 88.7338 35.1241C88.3664 35.1241 88.0406 35.2093 87.7565 35.3798C87.4762 35.5465 87.2565 35.7718 87.0974 36.0559C86.9383 36.3362 86.8569 36.6487 86.8531 36.9934V38.4196C86.8531 38.8514 86.9326 39.2245 87.0917 39.5389C87.2546 39.8533 87.4838 40.0957 87.7792 40.2662C88.0747 40.4366 88.4251 40.5218 88.8304 40.5218C89.0993 40.5218 89.3455 40.484 89.569 40.4082C89.7925 40.3324 89.9838 40.2188 90.1429 40.0673C90.302 39.9158 90.4232 39.7302 90.5065 39.5105L92.7451 39.6582C92.6315 40.1961 92.3985 40.6658 92.0463 41.0673C91.6978 41.465 91.247 41.7756 90.694 41.9991C90.1448 42.2188 89.5103 42.3287 88.7906 42.3287ZM96.7963 37.1127V42.1582H94.3758V33.4309H96.6826V34.9707H96.7849C96.9781 34.4631 97.302 34.0616 97.7565 33.7662C98.211 33.4669 98.7622 33.3173 99.4099 33.3173C100.016 33.3173 100.544 33.4499 100.995 33.715C101.446 33.9802 101.796 34.359 102.046 34.8514C102.296 35.34 102.421 35.9234 102.421 36.6014V42.1582H100.001V37.0332C100.005 36.4991 99.8682 36.0824 99.5917 35.7832C99.3152 35.4802 98.9345 35.3287 98.4497 35.3287C98.1239 35.3287 97.836 35.3987 97.586 35.5389C97.3398 35.679 97.1467 35.8836 97.0065 36.1525C96.8701 36.4177 96.8001 36.7377 96.7963 37.1127ZM112.153 33.4309L109.102 42.1582H106.374L103.323 33.4309H105.88L107.693 39.6752H107.783L109.59 33.4309H112.153ZM113.391 42.1582V33.4309H115.812V42.1582H113.391ZM114.607 32.3059C114.248 32.3059 113.939 32.1866 113.681 31.948C113.427 31.7056 113.301 31.4158 113.301 31.0787C113.301 30.7453 113.427 30.4593 113.681 30.2207C113.939 29.9783 114.248 29.8571 114.607 29.8571C114.967 29.8571 115.274 29.9783 115.528 30.2207C115.785 30.4593 115.914 30.7453 115.914 31.0787C115.914 31.4158 115.785 31.7056 115.528 31.948C115.274 32.1866 114.967 32.3059 114.607 32.3059ZM117.751 42.1582V33.4309H120.097V34.9537H120.188C120.347 34.412 120.614 34.0029 120.989 33.7264C121.364 33.4461 121.796 33.3059 122.285 33.3059C122.406 33.3059 122.537 33.3135 122.677 33.3287C122.817 33.3438 122.94 33.3646 123.046 33.3912V35.5389C122.933 35.5048 122.775 35.4745 122.575 35.448C122.374 35.4215 122.19 35.4082 122.024 35.4082C121.667 35.4082 121.349 35.4859 121.069 35.6412C120.792 35.7927 120.573 36.0048 120.41 36.2775C120.251 36.5502 120.171 36.8646 120.171 37.2207V42.1582H117.751ZM127.835 42.3287C126.952 42.3287 126.189 42.1412 125.545 41.7662C124.905 41.3874 124.41 40.8609 124.062 40.1866C123.713 39.5086 123.539 38.7226 123.539 37.8287C123.539 36.9271 123.713 36.1393 124.062 35.465C124.41 34.787 124.905 34.2605 125.545 33.8855C126.189 33.5067 126.952 33.3173 127.835 33.3173C128.717 33.3173 129.479 33.5067 130.119 33.8855C130.763 34.2605 131.259 34.787 131.607 35.465C131.956 36.1393 132.13 36.9271 132.13 37.8287C132.13 38.7226 131.956 39.5086 131.607 40.1866C131.259 40.8609 130.763 41.3874 130.119 41.7662C129.479 42.1412 128.717 42.3287 127.835 42.3287ZM127.846 40.4537C128.248 40.4537 128.583 40.34 128.852 40.1127C129.121 39.8817 129.323 39.5673 129.46 39.1696C129.6 38.7718 129.67 38.3192 129.67 37.8116C129.67 37.304 129.6 36.8514 129.46 36.4537C129.323 36.0559 129.121 35.7415 128.852 35.5105C128.583 35.2794 128.248 35.1639 127.846 35.1639C127.441 35.1639 127.1 35.2794 126.823 35.5105C126.551 35.7415 126.344 36.0559 126.204 36.4537C126.068 36.8514 125.999 37.304 125.999 37.8116C125.999 38.3192 126.068 38.7718 126.204 39.1696C126.344 39.5673 126.551 39.8817 126.823 40.1127C127.1 40.34 127.441 40.4537 127.846 40.4537ZM136.124 37.1127V42.1582H133.704V33.4309H136.011V34.9707H136.113C136.306 34.4631 136.63 34.0616 137.085 33.7662C137.539 33.4669 138.09 33.3173 138.738 33.3173C139.344 33.3173 139.873 33.4499 140.323 33.715C140.774 33.9802 141.124 34.359 141.374 34.8514C141.624 35.34 141.749 35.9234 141.749 36.6014V42.1582H139.329V37.0332C139.333 36.4991 139.196 36.0824 138.92 35.7832C138.643 35.4802 138.263 35.3287 137.778 35.3287C137.452 35.3287 137.164 35.3987 136.914 35.5389C136.668 35.679 136.475 35.8836 136.335 36.1525C136.198 36.4177 136.128 36.7377 136.124 37.1127ZM143.657 42.1582V33.4309H145.964V34.9707H146.066C146.248 34.4593 146.551 34.0559 146.975 33.7605C147.399 33.465 147.907 33.3173 148.498 33.3173C149.096 33.3173 149.606 33.4669 150.026 33.7662C150.447 34.0616 150.727 34.4631 150.867 34.9707H150.958C151.136 34.4707 151.458 34.0711 151.924 33.7718C152.394 33.4688 152.949 33.3173 153.589 33.3173C154.403 33.3173 155.064 33.5768 155.572 34.0957C156.083 34.6109 156.339 35.3419 156.339 36.2889V42.1582H153.924V36.7662C153.924 36.2813 153.795 35.9177 153.538 35.6752C153.28 35.4328 152.958 35.3116 152.572 35.3116C152.132 35.3116 151.79 35.4518 151.543 35.7321C151.297 36.0086 151.174 36.3741 151.174 36.8287V42.1582H148.828V36.715C148.828 36.287 148.704 35.9461 148.458 35.6923C148.216 35.4385 147.896 35.3116 147.498 35.3116C147.229 35.3116 146.987 35.3798 146.771 35.5162C146.559 35.6487 146.39 35.8362 146.265 36.0787C146.14 36.3173 146.078 36.5976 146.078 36.9196V42.1582H143.657ZM162.228 42.3287C161.33 42.3287 160.558 42.1468 159.91 41.7832C159.266 41.4158 158.77 40.8968 158.421 40.2264C158.073 39.5521 157.899 38.7548 157.899 37.8343C157.899 36.9366 158.073 36.1487 158.421 35.4707C158.77 34.7927 159.26 34.2643 159.893 33.8855C160.529 33.5067 161.275 33.3173 162.132 33.3173C162.707 33.3173 163.243 33.4101 163.739 33.5957C164.239 33.7775 164.675 34.0521 165.046 34.4196C165.421 34.787 165.713 35.2491 165.921 35.8059C166.13 36.359 166.234 37.0067 166.234 37.7491V38.4139H158.864V36.9139H163.955C163.955 36.5654 163.88 36.2567 163.728 35.9877C163.577 35.7188 163.366 35.5086 163.097 35.3571C162.832 35.2018 162.524 35.1241 162.171 35.1241C161.804 35.1241 161.478 35.2093 161.194 35.3798C160.914 35.5465 160.694 35.7718 160.535 36.0559C160.376 36.3362 160.294 36.6487 160.291 36.9934V38.4196C160.291 38.8514 160.37 39.2245 160.529 39.5389C160.692 39.8533 160.921 40.0957 161.217 40.2662C161.512 40.4366 161.863 40.5218 162.268 40.5218C162.537 40.5218 162.783 40.484 163.007 40.4082C163.23 40.3324 163.421 40.2188 163.58 40.0673C163.739 39.9158 163.861 39.7302 163.944 39.5105L166.183 39.6582C166.069 40.1961 165.836 40.6658 165.484 41.0673C165.135 41.465 164.685 41.7756 164.132 41.9991C163.582 42.2188 162.948 42.3287 162.228 42.3287ZM170.234 37.1127V42.1582H167.813V33.4309H170.12V34.9707H170.222C170.416 34.4631 170.739 34.0616 171.194 33.7662C171.649 33.4669 172.2 33.3173 172.847 33.3173C173.453 33.3173 173.982 33.4499 174.433 33.715C174.883 33.9802 175.234 34.359 175.484 34.8514C175.734 35.34 175.859 35.9234 175.859 36.6014V42.1582H173.438V37.0332C173.442 36.4991 173.306 36.0824 173.029 35.7832C172.753 35.4802 172.372 35.3287 171.887 35.3287C171.561 35.3287 171.274 35.3987 171.024 35.5389C170.777 35.679 170.584 35.8836 170.444 36.1525C170.308 36.4177 170.238 36.7377 170.234 37.1127ZM182.408 33.4309V35.2491H177.153V33.4309H182.408ZM178.346 31.34H180.766V39.4764C180.766 39.6999 180.801 39.8741 180.869 39.9991C180.937 40.1203 181.032 40.2056 181.153 40.2548C181.278 40.304 181.422 40.3287 181.585 40.3287C181.698 40.3287 181.812 40.3192 181.926 40.3002C182.039 40.2775 182.126 40.2605 182.187 40.2491L182.568 42.0502C182.446 42.0881 182.276 42.1317 182.056 42.1809C181.837 42.234 181.569 42.2662 181.255 42.2775C180.672 42.3002 180.16 42.2226 179.721 42.0446C179.285 41.8665 178.946 41.59 178.704 41.215C178.462 40.84 178.342 40.3665 178.346 39.7946V31.34ZM192.382 33.4309V35.2491H186.995V33.4309H192.382ZM188.228 42.1582V32.8002C188.228 32.1677 188.351 31.6431 188.597 31.2264C188.847 30.8097 189.188 30.4972 189.62 30.2889C190.052 30.0806 190.542 29.9764 191.092 29.9764C191.463 29.9764 191.802 30.0048 192.109 30.0616C192.419 30.1184 192.65 30.1696 192.802 30.215L192.37 32.0332C192.275 32.0029 192.158 31.9745 192.018 31.948C191.882 31.9215 191.741 31.9082 191.597 31.9082C191.241 31.9082 190.993 31.9915 190.853 32.1582C190.713 32.3211 190.643 32.5502 190.643 32.8457V42.1582H188.228ZM197.491 42.3287C196.608 42.3287 195.845 42.1412 195.201 41.7662C194.561 41.3874 194.067 40.8609 193.718 40.1866C193.37 39.5086 193.195 38.7226 193.195 37.8287C193.195 36.9271 193.37 36.1393 193.718 35.465C194.067 34.787 194.561 34.2605 195.201 33.8855C195.845 33.5067 196.608 33.3173 197.491 33.3173C198.373 33.3173 199.135 33.5067 199.775 33.8855C200.419 34.2605 200.915 34.787 201.264 35.465C201.612 36.1393 201.786 36.9271 201.786 37.8287C201.786 38.7226 201.612 39.5086 201.264 40.1866C200.915 40.8609 200.419 41.3874 199.775 41.7662C199.135 42.1412 198.373 42.3287 197.491 42.3287ZM197.502 40.4537C197.904 40.4537 198.239 40.34 198.508 40.1127C198.777 39.8817 198.98 39.5673 199.116 39.1696C199.256 38.7718 199.326 38.3192 199.326 37.8116C199.326 37.304 199.256 36.8514 199.116 36.4537C198.98 36.0559 198.777 35.7415 198.508 35.5105C198.239 35.2794 197.904 35.1639 197.502 35.1639C197.097 35.1639 196.756 35.2794 196.48 35.5105C196.207 35.7415 196 36.0559 195.86 36.4537C195.724 36.8514 195.656 37.304 195.656 37.8116C195.656 38.3192 195.724 38.7718 195.86 39.1696C196 39.5673 196.207 39.8817 196.48 40.1127C196.756 40.34 197.097 40.4537 197.502 40.4537ZM203.36 42.1582V33.4309H205.707V34.9537H205.798C205.957 34.412 206.224 34.0029 206.599 33.7264C206.974 33.4461 207.406 33.3059 207.894 33.3059C208.015 33.3059 208.146 33.3135 208.286 33.3287C208.426 33.3438 208.55 33.3646 208.656 33.3912V35.5389C208.542 35.5048 208.385 35.4745 208.184 35.448C207.983 35.4215 207.8 35.4082 207.633 35.4082C207.277 35.4082 206.959 35.4859 206.678 35.6412C206.402 35.7927 206.182 36.0048 206.019 36.2775C205.86 36.5502 205.781 36.8646 205.781 37.2207V42.1582H203.36ZM216.099 42.323C215.542 42.323 215.046 42.2264 214.61 42.0332C214.175 41.8362 213.83 41.5465 213.576 41.1639C213.326 40.7775 213.201 40.2965 213.201 39.7207C213.201 39.2359 213.29 38.8287 213.468 38.4991C213.646 38.1696 213.889 37.9044 214.195 37.7037C214.502 37.5029 214.851 37.3514 215.241 37.2491C215.635 37.1468 216.048 37.0749 216.48 37.0332C216.987 36.9802 217.396 36.9309 217.707 36.8855C218.017 36.8362 218.243 36.7643 218.383 36.6696C218.523 36.5749 218.593 36.4347 218.593 36.2491V36.215C218.593 35.8552 218.48 35.5768 218.252 35.3798C218.029 35.1828 217.711 35.0843 217.298 35.0843C216.862 35.0843 216.515 35.1809 216.258 35.3741C216 35.5635 215.83 35.8021 215.747 36.09L213.508 35.9082C213.622 35.3779 213.845 34.9196 214.178 34.5332C214.512 34.1431 214.942 33.8438 215.468 33.6355C215.998 33.4234 216.612 33.3173 217.309 33.3173C217.794 33.3173 218.258 33.3741 218.701 33.4877C219.148 33.6014 219.544 33.7775 219.889 34.0162C220.237 34.2548 220.512 34.5616 220.712 34.9366C220.913 35.3078 221.014 35.7529 221.014 36.2718V42.1582H218.718V40.948H218.65C218.51 41.2207 218.322 41.4612 218.087 41.6696C217.853 41.8741 217.57 42.0351 217.241 42.1525C216.911 42.2662 216.531 42.323 216.099 42.323ZM216.792 40.6525C217.148 40.6525 217.462 40.5824 217.735 40.4423C218.008 40.2984 218.222 40.1052 218.377 39.8627C218.533 39.6203 218.61 39.3457 218.61 39.0389V38.1127C218.534 38.162 218.43 38.2074 218.298 38.2491C218.169 38.287 218.023 38.323 217.86 38.3571C217.697 38.3874 217.534 38.4158 217.372 38.4423C217.209 38.465 217.061 38.4859 216.928 38.5048C216.644 38.5465 216.396 38.6127 216.184 38.7037C215.972 38.7946 215.807 38.9177 215.69 39.073C215.572 39.2245 215.514 39.4139 215.514 39.6412C215.514 39.9707 215.633 40.2226 215.872 40.3968C216.114 40.5673 216.421 40.6525 216.792 40.6525ZM225.312 30.5218V42.1582H222.891V30.5218H225.312ZM229.671 30.5218V42.1582H227.251V30.5218H229.671ZM233.025 42.3059C232.65 42.3059 232.328 42.1734 232.059 41.9082C231.794 41.6393 231.661 41.3173 231.661 40.9423C231.661 40.5711 231.794 40.2529 232.059 39.9877C232.328 39.7226 232.65 39.59 233.025 39.59C233.389 39.59 233.707 39.7226 233.98 39.9877C234.252 40.2529 234.389 40.5711 234.389 40.9423C234.389 41.1923 234.324 41.4215 234.195 41.6298C234.07 41.8343 233.906 41.9991 233.701 42.1241C233.497 42.2453 233.271 42.3059 233.025 42.3059Z" fill="black"/>
</svg>
