<svg width="424" height="172" viewBox="0 0 424 172" fill="none" xmlns="http://www.w3.org/2000/svg">
<path d="M228.816 69.024C225.232 69.024 221.904 68.4693 218.832 67.36C215.803 66.208 213.157 64.5867 210.896 62.496C208.677 60.4053 206.949 57.9307 205.712 55.072C204.475 52.2133 203.856 49.056 203.856 45.6C203.856 42.144 204.475 38.9867 205.712 36.128C206.949 33.2693 208.677 30.7947 210.896 28.704C213.157 26.6133 215.803 25.0133 218.832 23.904C221.904 22.752 225.232 22.176 228.816 22.176C233.211 22.176 237.093 22.944 240.464 24.48C243.877 26.016 246.693 28.2347 248.912 31.136L239.376 39.648C238.053 37.984 236.581 36.704 234.96 35.808C233.381 34.8693 231.589 34.4 229.584 34.4C228.005 34.4 226.576 34.656 225.296 35.168C224.016 35.68 222.907 36.4267 221.968 37.408C221.072 38.3893 220.368 39.584 219.856 40.992C219.344 42.3573 219.088 43.8933 219.088 45.6C219.088 47.3067 219.344 48.864 219.856 50.272C220.368 51.6373 221.072 52.8107 221.968 53.792C222.907 54.7733 224.016 55.52 225.296 56.032C226.576 56.544 228.005 56.8 229.584 56.8C231.589 56.8 233.381 56.352 234.96 55.456C236.581 54.5173 238.053 53.216 239.376 51.552L248.912 60.064C246.693 62.9227 243.877 65.1413 240.464 66.72C237.093 68.256 233.211 69.024 228.816 69.024ZM270.321 68.64C266.353 68.64 262.833 67.872 259.761 66.336C256.732 64.7573 254.342 62.6027 252.593 59.872C250.844 57.1413 249.969 54.0053 249.969 50.464C249.969 46.9227 250.844 43.7867 252.593 41.056C254.342 38.3253 256.732 36.192 259.761 34.656C262.833 33.12 266.353 32.352 270.321 32.352C274.289 32.352 277.809 33.12 280.881 34.656C283.953 36.192 286.342 38.3253 288.049 41.056C289.798 43.7867 290.673 46.9227 290.673 50.464C290.673 54.0053 289.798 57.1413 288.049 59.872C286.342 62.6027 283.953 64.7573 280.881 66.336C277.809 67.872 274.289 68.64 270.321 68.64ZM270.321 57.376C271.388 57.376 272.348 57.12 273.201 56.608C274.054 56.096 274.737 55.328 275.249 54.304C275.761 53.2373 276.017 51.9573 276.017 50.464C276.017 48.928 275.761 47.6693 275.249 46.688C274.737 45.664 274.054 44.896 273.201 44.384C272.348 43.872 271.388 43.616 270.321 43.616C269.254 43.616 268.294 43.872 267.441 44.384C266.588 44.896 265.905 45.664 265.393 46.688C264.881 47.6693 264.625 48.928 264.625 50.464C264.625 51.9573 264.881 53.2373 265.393 54.304C265.905 55.328 266.588 56.096 267.441 56.608C268.294 57.12 269.254 57.376 270.321 57.376ZM295.2 68V32.992H309.664V68H295.2ZM302.432 30.176C299.787 30.176 297.675 29.472 296.096 28.064C294.517 26.656 293.728 24.9067 293.728 22.816C293.728 20.7253 294.517 18.976 296.096 17.568C297.675 16.16 299.787 15.456 302.432 15.456C305.077 15.456 307.189 16.1173 308.768 17.44C310.347 18.7627 311.136 20.4693 311.136 22.56C311.136 24.7787 310.347 26.6133 308.768 28.064C307.189 29.472 305.077 30.176 302.432 30.176ZM340.395 32.352C343.083 32.352 345.515 32.9067 347.691 34.016C349.867 35.0827 351.574 36.768 352.811 39.072C354.091 41.376 354.731 44.3627 354.731 48.032V68H340.267V50.528C340.267 48.352 339.883 46.816 339.115 45.92C338.347 44.9813 337.302 44.512 335.979 44.512C334.998 44.512 334.08 44.7467 333.227 45.216C332.416 45.6427 331.755 46.368 331.243 47.392C330.774 48.416 330.539 49.8027 330.539 51.552V68H316.075V32.992H329.835V43.232L327.083 40.288C328.448 37.6427 330.283 35.6587 332.587 34.336C334.934 33.0133 337.536 32.352 340.395 32.352ZM222.352 147.024C218.597 147.024 214.971 146.597 211.472 145.744C207.973 144.891 205.093 143.781 202.832 142.416L207.696 131.408C209.829 132.645 212.197 133.648 214.8 134.416C217.445 135.141 220.005 135.504 222.48 135.504C223.931 135.504 225.061 135.419 225.872 135.248C226.725 135.035 227.344 134.757 227.728 134.416C228.112 134.032 228.304 133.584 228.304 133.072C228.304 132.261 227.856 131.621 226.96 131.152C226.064 130.683 224.869 130.299 223.376 130C221.925 129.659 220.325 129.317 218.576 128.976C216.827 128.592 215.056 128.101 213.264 127.504C211.515 126.907 209.893 126.117 208.4 125.136C206.949 124.155 205.776 122.875 204.88 121.296C203.984 119.675 203.536 117.669 203.536 115.28C203.536 112.507 204.304 109.989 205.84 107.728C207.419 105.424 209.744 103.589 212.816 102.224C215.931 100.859 219.792 100.176 224.4 100.176C227.429 100.176 230.416 100.496 233.36 101.136C236.304 101.776 238.949 102.757 241.296 104.08L236.752 115.024C234.533 113.915 232.379 113.083 230.288 112.528C228.24 111.973 226.235 111.696 224.272 111.696C222.821 111.696 221.669 111.824 220.816 112.08C219.963 112.336 219.344 112.677 218.96 113.104C218.619 113.531 218.448 114 218.448 114.512C218.448 115.28 218.896 115.899 219.792 116.368C220.688 116.795 221.861 117.157 223.312 117.456C224.805 117.755 226.427 118.075 228.176 118.416C229.968 118.757 231.739 119.227 233.488 119.824C235.237 120.421 236.837 121.211 238.288 122.192C239.781 123.173 240.976 124.453 241.872 126.032C242.768 127.611 243.216 129.573 243.216 131.92C243.216 134.651 242.427 137.168 240.848 139.472C239.312 141.733 237.008 143.568 233.936 144.976C230.864 146.341 227.003 147.024 222.352 147.024ZM271.583 110.352C274.271 110.352 276.703 110.907 278.879 112.016C281.055 113.083 282.761 114.768 283.999 117.072C285.279 119.376 285.919 122.363 285.919 126.032V146H271.455V128.528C271.455 126.352 271.071 124.816 270.303 123.92C269.535 122.981 268.489 122.512 267.167 122.512C266.185 122.512 265.268 122.747 264.415 123.216C263.604 123.643 262.943 124.368 262.431 125.392C261.961 126.416 261.727 127.803 261.727 129.552V146H247.263V98.512H261.727V121.232L258.271 118.288C259.636 115.643 261.471 113.659 263.775 112.336C266.121 111.013 268.724 110.352 271.583 110.352ZM292.2 146V110.992H306.664V146H292.2ZM299.432 108.176C296.787 108.176 294.675 107.472 293.096 106.064C291.517 104.656 290.728 102.907 290.728 100.816C290.728 98.7253 291.517 96.976 293.096 95.568C294.675 94.16 296.787 93.456 299.432 93.456C302.077 93.456 304.189 94.1173 305.768 95.44C307.347 96.7627 308.136 98.4693 308.136 100.56C308.136 102.779 307.347 104.613 305.768 106.064C304.189 107.472 302.077 108.176 299.432 108.176ZM332.403 146.64C328.136 146.64 324.403 145.851 321.203 144.272C318.046 142.693 315.592 140.539 313.843 137.808C312.094 135.035 311.219 131.92 311.219 128.464C311.219 124.923 312.072 121.787 313.779 119.056C315.528 116.325 317.896 114.192 320.883 112.656C323.912 111.12 327.304 110.352 331.059 110.352C334.515 110.352 337.694 111.035 340.595 112.4C343.539 113.765 345.886 115.792 347.635 118.48C349.427 121.168 350.323 124.496 350.323 128.464C350.323 128.976 350.302 129.552 350.259 130.192C350.216 130.789 350.174 131.344 350.131 131.856H323.187V124.88H342.451L337.011 126.736C337.011 125.371 336.755 124.219 336.243 123.28C335.774 122.299 335.112 121.552 334.259 121.04C333.406 120.485 332.382 120.208 331.187 120.208C329.992 120.208 328.947 120.485 328.051 121.04C327.198 121.552 326.536 122.299 326.067 123.28C325.598 124.219 325.363 125.371 325.363 126.736V128.912C325.363 130.405 325.662 131.685 326.259 132.752C326.856 133.819 327.71 134.629 328.819 135.184C329.928 135.696 331.272 135.952 332.851 135.952C334.472 135.952 335.795 135.739 336.819 135.312C337.886 134.885 338.995 134.245 340.147 133.392L347.699 141.008C345.992 142.843 343.88 144.251 341.363 145.232C338.888 146.171 335.902 146.64 332.403 146.64ZM354.888 146V98.512H369.352V146H354.888ZM391.123 146.64C388.093 146.64 385.277 145.915 382.675 144.464C380.115 142.971 378.067 140.88 376.531 138.192C374.995 135.461 374.227 132.219 374.227 128.464C374.227 124.709 374.995 121.488 376.531 118.8C378.067 116.069 380.115 113.979 382.675 112.528C385.277 111.077 388.093 110.352 391.123 110.352C394.195 110.352 396.712 111.013 398.675 112.336C400.637 113.616 402.088 115.6 403.027 118.288C403.965 120.933 404.435 124.325 404.435 128.464C404.435 132.645 403.987 136.08 403.091 138.768C402.237 141.456 400.829 143.44 398.867 144.72C396.947 146 394.365 146.64 391.123 146.64ZM394.579 135.376C395.645 135.376 396.605 135.12 397.459 134.608C398.312 134.096 398.995 133.328 399.507 132.304C400.019 131.237 400.275 129.957 400.275 128.464C400.275 126.928 400.019 125.669 399.507 124.688C398.995 123.664 398.312 122.896 397.459 122.384C396.605 121.872 395.645 121.616 394.579 121.616C393.512 121.616 392.552 121.872 391.699 122.384C390.845 122.896 390.163 123.664 389.651 124.688C389.139 125.669 388.883 126.928 388.883 128.464C388.883 129.957 389.139 131.237 389.651 132.304C390.163 133.328 390.845 134.096 391.699 134.608C392.552 135.12 393.512 135.376 394.579 135.376ZM400.723 146V141.264L400.659 128.464L400.019 115.664V98.512H414.483V146H400.723Z" fill="#FF0000"/>
<path d="M83.5607 76.6199V0.990234H0.547852V124.734L83.5607 76.5715V76.6199Z" fill="url(#paint0_linear_2996_2997)"/>
<path d="M83.5596 0.990234V76.6199L166.548 124.734V0.990234H83.5596Z" fill="#ED302F"/>
<path d="M83.5607 76.5234L0.547852 124.686L83.5607 171.99V76.5718V76.5234Z" fill="#ED302F"/>
<path d="M145.045 111.824L83.5596 76.5234V171.941V171.99L166.419 124.637L145.045 111.824Z" fill="url(#paint1_linear_2996_2997)"/>
<path d="M15.9593 22.3428H15.9463V116.582L15.9664 116.594L80.4799 153.707V153.712L144.986 116.603L144.982 116.598L144.986 116.595V82.006H129.588V107.694V107.71L80.4799 135.961V135.963L31.3454 107.688V107.678V37.7407V37.7218H129.59V50.2229H144.987V22.3451V22.3439L15.9593 22.3428Z" fill="#D1181F"/>
<path d="M140.37 47.1481H148.07L140.37 39.458V47.1481Z" fill="url(#paint2_linear_2996_2997)"/>
<path d="M140.369 39.458L132.671 47.1481H140.369V39.458Z" fill="white"/>
<path d="M140.37 86.6155L148.07 78.9277H140.37V86.6155Z" fill="white"/>
<path d="M140.369 78.9277H132.671L140.369 86.6155V78.9277Z" fill="url(#paint3_linear_2996_2997)"/>
<path d="M26.7271 109.059V26.9579L19.0394 19.2666H19.0264V113.506L19.0453 113.519L26.7318 109.062L26.7271 109.059Z" fill="white"/>
<path d="M34.4259 34.6646L26.7275 26.958V109.059L26.7323 109.062L34.4259 104.603V34.6646Z" fill="url(#paint4_linear_2996_2997)"/>
<path d="M26.7314 109.061L19.0449 113.518L83.5596 150.63V141.76L26.7314 109.061Z" fill="url(#paint5_linear_2996_2997)"/>
<path d="M83.5605 132.888L34.426 104.613V104.604L26.7324 109.062L83.5605 141.761V132.885V132.888Z" fill="white"/>
<path d="M140.369 109.075V86.6155L132.671 78.9277V104.615L140.369 109.075Z" fill="white"/>
<path d="M132.67 104.616V104.633L83.5596 132.884V141.761L140.369 109.076L132.67 104.616Z" fill="url(#paint6_linear_2996_2997)"/>
<path d="M140.384 109.076L83.5596 141.761V150.631V150.633L148.068 113.526L140.384 109.076Z" fill="white"/>
<path d="M148.07 113.518V78.9277L140.37 86.6155V109.075L148.053 113.525L148.07 113.518Z" fill="url(#paint7_linear_2996_2997)"/>
<path d="M140.37 26.957L26.7275 26.9582L34.4259 34.6648V34.646H132.671V34.6483L140.37 26.9582V26.957Z" fill="white"/>
<path d="M132.671 34.6481V47.1481L140.369 39.458V26.958L132.671 34.6481Z" fill="url(#paint8_linear_2996_2997)"/>
<path d="M148.068 19.2666H19.0391L26.7268 26.9579L140.369 26.9567V26.9579L148.068 19.269V19.2666Z" fill="url(#paint9_linear_2996_2997)"/>
<path d="M140.37 26.9575V39.4575L148.07 47.1475V19.2686L140.37 26.9575Z" fill="white"/>
<defs>
<linearGradient id="paint0_linear_2996_2997" x1="-1.91259" y1="62.8619" x2="83.9016" y2="62.8619" gradientUnits="userSpaceOnUse">
<stop stop-color="#EC1C24"/>
<stop offset="1" stop-color="#BE1F24"/>
</linearGradient>
<linearGradient id="paint1_linear_2996_2997" x1="134.694" y1="158.723" x2="73.3893" y2="92.7868" gradientUnits="userSpaceOnUse">
<stop stop-color="#EC1C24"/>
<stop offset="1" stop-color="#BE1F24"/>
</linearGradient>
<linearGradient id="paint2_linear_2996_2997" x1="144.22" y1="37.5829" x2="144.22" y2="51.4095" gradientUnits="userSpaceOnUse">
<stop stop-color="#F1F1F2"/>
<stop offset="1" stop-color="#A6A8AB"/>
</linearGradient>
<linearGradient id="paint3_linear_2996_2997" x1="136.52" y1="87.3491" x2="136.52" y2="76.5621" gradientUnits="userSpaceOnUse">
<stop stop-color="#F1F1F2"/>
<stop offset="1" stop-color="#A6A8AB"/>
</linearGradient>
<linearGradient id="paint4_linear_2996_2997" x1="30.5765" y1="111.382" x2="30.5765" y2="33.3734" gradientUnits="userSpaceOnUse">
<stop stop-color="#F1F1F2"/>
<stop offset="1" stop-color="#A6A8AB"/>
</linearGradient>
<linearGradient id="paint5_linear_2996_2997" x1="19.0453" y1="129.845" x2="83.56" y2="129.845" gradientUnits="userSpaceOnUse">
<stop stop-color="#F1F1F2"/>
<stop offset="1" stop-color="#A6A8AB"/>
</linearGradient>
<linearGradient id="paint6_linear_2996_2997" x1="83.56" y1="123.189" x2="140.369" y2="123.189" gradientUnits="userSpaceOnUse">
<stop stop-color="#F1F1F2"/>
<stop offset="1" stop-color="#A6A8AB"/>
</linearGradient>
<linearGradient id="paint7_linear_2996_2997" x1="144.22" y1="112.895" x2="144.22" y2="78.4476" gradientUnits="userSpaceOnUse">
<stop stop-color="#F1F1F2"/>
<stop offset="1" stop-color="#A6A8AB"/>
</linearGradient>
<linearGradient id="paint8_linear_2996_2997" x1="136.52" y1="31.1492" x2="136.52" y2="45.0268" gradientUnits="userSpaceOnUse">
<stop stop-color="#F1F1F2"/>
<stop offset="1" stop-color="#A6A8AB"/>
</linearGradient>
<linearGradient id="paint9_linear_2996_2997" x1="19.0389" y1="23.1122" x2="148.068" y2="23.1122" gradientUnits="userSpaceOnUse">
<stop stop-color="#F1F1F2"/>
<stop offset="1" stop-color="#A6A8AB"/>
</linearGradient>
</defs>
</svg>
