<svg width="14" height="14" viewBox="0 0 14 14" fill="none" xmlns="http://www.w3.org/2000/svg">
  <path d="M7 0C3.13438 0 0 3.13438 0 7C0 10.8656 3.13438 14 7 14C10.8656 14 14 10.8656 14 7C14 3.13438 10.8656 0 7 0ZM10.5 4.66875L6.5625 9.33125C6.51042 9.39375 6.44635 9.44364 6.37406 9.47743C6.30177 9.51122 6.22311 9.52813 6.14375 9.52708C6.06875 9.52708 5.99375 9.51042 5.92396 9.47743C5.85417 9.44445 5.79167 9.39375 5.74062 9.33125L3.5 6.58125C3.39583 6.45625 3.39583 6.25625 3.5 6.13125C3.60417 6.00625 3.77917 6.00625 3.88333 6.13125L6.125 8.88125L10.0625 4.16875C10.1667 4.04375 10.3417 4.04375 10.4458 4.16875C10.55 4.29375 10.5542 4.49375 10.5 4.66875Z" fill="#6C6C85"/>
</svg> 